<svg id="Layer_1" data-name="Layer 1" xmlns="http://www.w3.org/2000/svg" viewBox="0 0 749 148.3"><defs><style>.cls-1{fill:#0c753b;}</style></defs><path class="cls-1" d="M370.38,444c5.84.22,11.67.13,17.51-.22,23-1.39,48-.1,71.11.22,23.64.33,44.78-2.55,68.39-1.52,12,.51,24,.31,36,.63,11.83.31,23.64,1.69,35.47,1.42,24.17-.53,47.28,0,71.17.47s47.9-.19,72,0c23.89.18,47.88.31,71.78.62,23.68.3,47.54-.88,71.22-.62,27,.29,68-.71,89,2,24.46,3.16,22.14-1,47,0,0-3.8-1-5.2-1-9-2.84.86-3.47-1.81-6.7-3.78-10.79-.07-20.26-6-30.85-7a.69.69,0,0,1-.46-.16c-7.68-8.38-17.89-5.3-27.25-6.05a5.26,5.26,0,0,1-2-.25c-9.49-5.08-20-5.07-30.31-6.18a9.63,9.63,0,0,1-4.22-1.42c-3.93-2.6-8.18-2.71-12.51-1.81-7.14,1.5-13.34.1-19-4.7a19.67,19.67,0,0,0-7.94-4c-7.76-1.87-14.86-6.28-22.9-6.69-7.28-.37-12-5.1-17.22-8.83-3.18-2.27-6.62-4.3-9.32-7.36a9.23,9.23,0,0,0-6.91-3.59,3.89,3.89,0,0,1-2.69-1c-4.43-5.28-10.56-7.59-16.6-10.38-10.47-4.84-20-11.55-30.79-15.87-1.37-.55-2.83-.88-4.23-1.35-3.55-1.16-7.41-1.36-10.27-4.46-1.54-1.66-4-2.27-6.39-2.56a11.8,11.8,0,0,1-4.33-.93c-8.12-4.71-17-6.95-26-9.25-10.24-2.61-19.64-7.66-28.82-12.95a48.65,48.65,0,0,0-9.09-3.93c-4.13-1.37-8.24-2.84-11.35-6.64-3.68-4.49-8.84-6.14-15-6.48-4.52-.25-9,.31-13.54-.3-8.4-1.13-16.07,3.65-24.45,3.13-1.47-.09-3.19,1-4.54,1.91-6.9,4.73-14.81,7.27-22.43,10.41-10.77,4.45-21.45,9-31.88,14.23-20.87,10.38-41.86,20.5-62.62,31.1-17.78,9.09-35.16,19-53,28-10.94,5.52-21.83,11.72-34.55,12.36-12.91.65-25.79,1.41-38.78,1.25-8.73-.11-17.05-1.68-25.57-2.46-2.72-.25-7.26,2.8-7.55,0-.07-.62-4.43-2.35-6-1-7,6-1.21,4.62-15,8-3.09,2.51-12,3.43-15,6s-6,1.36-9,4c0,8.78-21,18.22-21,27h14c21,0,42-.21,62.94,0,6.68.07,10.42-.91,17.05,0C366,443.23,369.39,444,370.38,444Z" transform="translate(-272 -299.91)"/></svg>