<?xml version="1.0" encoding="utf-8"?>
<!-- Generator: Adobe Illustrator 24.2.3, SVG Export Plug-In . SVG Version: 6.00 Build 0)  -->
<svg version="1.1" id="Layer_1" xmlns="http://www.w3.org/2000/svg" xmlns:xlink="http://www.w3.org/1999/xlink" x="0px" y="0px"
	 viewBox="0 0 536 357" style="enable-background:new 0 0 536 357;" xml:space="preserve">
<style type="text/css">
	.st0{fill:#FCFCFC;}
</style>
<g>
	<path class="st0" d="M455.6,181.8c0.3-3.2,0.4-6.5,0.4-9.8c0-70.7-62.2-128-139-128c-46.9,0-88.4,21.4-113.6,54.2
		c-7.8-2.7-16.2-4.2-24.9-4.2c-43.4,0-78.5,36-78.5,80.5c0,1,0,2,0.1,3C64.6,181.4,37,211.5,37,248v0c0,39.2,31.8,71,71,71h322
		c39.2,0,71-31.8,71-71v0C501,217.8,482.2,192.1,455.6,181.8z"/>
</g>
</svg>
